<svg width="20" height="20" viewBox="0 0 20 20" fill="none" xmlns="http://www.w3.org/2000/svg">
<path d="M15.0335 11.2917C14.6835 11.6334 14.4835 12.125 14.5335 12.65C14.6085 13.55 15.4335 14.2084 16.3335 14.2084H17.9168V15.2C17.9168 16.925 16.5085 18.3334 14.7835 18.3334H6.3585C6.61683 18.1167 6.84183 17.85 7.01683 17.55C7.32516 17.05 7.50016 16.4584 7.50016 15.8334C7.50016 13.9917 6.0085 12.5 4.16683 12.5C3.3835 12.5 2.6585 12.775 2.0835 13.2334V9.59172C2.0835 7.86672 3.49182 6.45837 5.21682 6.45837H14.7835C16.5085 6.45837 17.9168 7.86672 17.9168 9.59172V10.7917H16.2335C15.7668 10.7917 15.3418 10.975 15.0335 11.2917Z" stroke="#FF9924" stroke-linecap="round" stroke-linejoin="round"/>
<path d="M2.0835 10.3417V6.53342C2.0835 5.54175 2.69183 4.65838 3.61683 4.30838L10.2335 1.80838C11.2668 1.41672 12.3752 2.18341 12.3752 3.29174V6.4584" stroke="#FF9924" stroke-linecap="round" stroke-linejoin="round"/>
<path d="M18.7992 11.6418V13.3586C18.7992 13.8169 18.4325 14.1919 17.9658 14.2085H16.3325C15.4325 14.2085 14.6075 13.5502 14.5325 12.6502C14.4825 12.1252 14.6825 11.6335 15.0325 11.2918C15.3408 10.9752 15.7658 10.7919 16.2325 10.7919H17.9658C18.4325 10.8085 18.7992 11.1835 18.7992 11.6418Z" stroke="#FF9924" stroke-linecap="round" stroke-linejoin="round"/>
<path d="M5.8335 10H11.6668" stroke="#FF9924" stroke-linecap="round" stroke-linejoin="round"/>
<path d="M7.50016 15.8333C7.50016 16.4583 7.32516 17.05 7.01683 17.55C6.84183 17.85 6.61683 18.1167 6.3585 18.3333C5.77517 18.8583 5.0085 19.1667 4.16683 19.1667C2.95016 19.1667 1.89183 18.5167 1.31683 17.55C1.0085 17.05 0.833496 16.4583 0.833496 15.8333C0.833496 14.7833 1.31683 13.8417 2.0835 13.2333C2.6585 12.775 3.3835 12.5 4.16683 12.5C6.0085 12.5 7.50016 13.9917 7.50016 15.8333Z" stroke="#FF9924" stroke-miterlimit="10" stroke-linecap="round" stroke-linejoin="round"/>
<path d="M2.86816 15.8329L3.69316 16.6579L5.46816 15.0162" stroke="#FF9924" stroke-linecap="round" stroke-linejoin="round"/>
</svg>
