<svg width="20" height="24" viewBox="0 0 20 24" fill="none" xmlns="http://www.w3.org/2000/svg">
<path d="M18.05 10.44L17.2333 14.62C16.5333 18.23 15.15 19.69 12.55 19.39C12.1333 19.35 11.6833 19.26 11.2 19.12L9.79999 18.72C6.32499 17.73 5.24999 15.67 6.06665 11.49L6.88332 7.30001C7.04999 6.45001 7.24999 5.71001 7.49999 5.10001C8.47499 2.68001 10.1333 2.03001 12.9167 2.82001L14.3083 3.21001C17.8 4.19001 18.8667 6.26001 18.05 10.44Z" stroke="white" strokeLinecap="round" strokeLinejoin="round"/>
<path d="M12.5498 19.39C12.0331 19.81 11.3831 20.16 10.5915 20.47L9.2748 20.99C5.96646 22.27 4.2248 21.2 3.1498 17.23L2.08313 13.28C1.01646 9.30998 1.8998 7.20998 5.20813 5.92998L6.5248 5.40998C6.86646 5.27998 7.19146 5.16998 7.4998 5.09998C7.2498 5.70998 7.0498 6.44998 6.88313 7.29998L6.06646 11.49C5.2498 15.67 6.3248 17.73 9.7998 18.72L11.1998 19.12C11.6831 19.26 12.1331 19.35 12.5498 19.39Z" stroke="white" strokeLinecap="round" strokeLinejoin="round"/>
<path d="M10.5332 8.53003L14.5749 9.76003" stroke="white" strokeLinecap="round" strokeLinejoin="round"/>
<path d="M9.7168 12.4L12.1335 13.14" stroke="white" strokeLinecap="round" strokeLinejoin="round"/>
</svg>
