<svg width="361" height="730" viewBox="0 0 361 730" fill="none" xmlns="http://www.w3.org/2000/svg">
<path d="M351.419 217.153H359.885C360.336 217.153 360.699 217.516 360.699 217.967V302.259C360.699 302.71 360.336 303.074 359.885 303.074H351.419C350.968 303.074 350.604 302.71 350.604 302.259V217.967C350.604 217.516 350.968 217.153 351.419 217.153Z" fill="#3F4B5B"/>
<path d="M0.814072 199.672H9.28052C9.73153 199.672 10.0946 200.035 10.0946 200.486V252.542C10.0946 252.993 9.73138 253.357 9.28052 253.357H0.814072C0.363061 253.357 0 252.993 0 252.542V200.486C0 200.035 0.363213 199.672 0.814072 199.672Z" fill="#3F4B5B"/>
<path d="M0.814072 269.709H9.28052C9.73153 269.709 10.0946 270.072 10.0946 270.523V322.579C10.0946 323.03 9.73138 323.393 9.28052 323.393H0.814072C0.363061 323.393 0 323.03 0 322.579V270.523C0 270.072 0.363213 269.709 0.814072 269.709Z" fill="#3F4B5B"/>
<path d="M9.28054 146.502H0.814082C0.364477 146.502 0 146.866 0 147.316V173.583C0 174.033 0.364477 174.398 0.814082 174.398H9.28054C9.73014 174.398 10.0946 174.033 10.0946 173.583V147.316C10.0946 146.866 9.73014 146.502 9.28054 146.502Z" fill="#3F4B5B"/>
<path d="M351.419 218.211H359.885C360.336 218.211 360.699 218.574 360.699 219.025V301.527C360.699 301.978 360.336 302.341 359.885 302.341H351.419C350.968 302.341 350.604 301.978 350.604 301.527V219.025C350.604 218.574 350.968 218.211 351.419 218.211Z" fill="url(#paint0_linear_19_1301)"/>
<path d="M0.903916 200.73H9.37036C9.82137 200.73 10.1844 201.093 10.1844 201.544V251.81C10.1844 252.261 9.82122 252.624 9.37036 252.624H0.903916C0.452905 252.624 0.0898438 252.261 0.0898438 251.81V201.544C0.0898438 201.093 0.453056 200.73 0.903916 200.73Z" fill="url(#paint1_linear_19_1301)"/>
<path d="M0.814072 270.767H9.28052C9.73153 270.767 10.0946 271.13 10.0946 271.581V321.847C10.0946 322.298 9.73138 322.661 9.28052 322.661H0.814072C0.363061 322.661 0 322.298 0 321.847V271.581C0 271.13 0.363213 270.767 0.814072 270.767Z" fill="url(#paint2_linear_19_1301)"/>
<path d="M9.28054 147.56H0.814082C0.364477 147.56 0 147.924 0 148.374V172.851C0 173.3 0.364477 173.665 0.814082 173.665H9.28054C9.73014 173.665 10.0946 173.3 10.0946 172.851V148.374C10.0946 147.924 9.73014 147.56 9.28054 147.56Z" fill="url(#paint3_linear_19_1301)"/>
<path d="M302.562 0.49939H58.2279C27.4979 0.49939 2.58643 25.4109 2.58643 56.1408V673.183C2.58643 703.913 27.4979 728.825 58.2279 728.825H302.562C333.292 728.825 358.203 703.913 358.203 673.183V56.1408C358.203 25.4109 333.292 0.49939 302.562 0.49939Z" fill="#C8E1F8" stroke="#3F4B5B" strokeWidth="0.999999" strokeLinecap="round" strokeLinejoin="round"/>
<g filter="url(#filter0_f_19_1301)">
<path d="M58.2246 2.45117C28.4458 2.45117 4.53516 26.3618 4.53516 56.1406V673.185C4.53516 702.964 28.4458 726.873 58.2246 726.873H302.564C332.343 726.873 356.254 702.964 356.254 673.185V56.1406C356.254 26.3618 332.343 2.45117 302.564 2.45117H58.2246Z" fill="#A0B8CE"/>
</g>
<path d="M281.636 0V11.9609H286.605V0H281.636ZM2.08594 72.6621V77.6319H358.703V72.6621H2.08594ZM2.08594 652.96V657.93H358.703V652.96H2.08594ZM74.1836 719.025V729.324H79.1534V719.025H74.1836Z" fill="#819ABB"/>
<path d="M212.975 4.83789H149.725V9.87603H212.975V4.83789Z" fill="black"/>
<path d="M59.1641 5.08789C30.1048 5.08789 6.71094 28.4818 6.71094 57.541V671.783C6.71094 700.842 30.1048 724.236 59.1641 724.236H301.625C330.684 724.236 354.078 700.842 354.078 671.783V57.541C354.078 28.4818 330.684 5.08789 301.625 5.08789H212.949C212.398 5.08815 211.864 5.28582 211.446 5.64514C211.028 6.00447 210.752 6.5017 210.668 7.04687V7.14844H210.654H152.045C151.984 6.58249 151.715 6.05912 151.292 5.67881C150.868 5.2985 150.319 5.08806 149.75 5.08789H59.1641Z" fill="black" stroke="#434343" strokeWidth="0.500001"/>
<path d="M208.359 5.08777H154.341C153.066 5.08777 152.032 6.12142 152.032 7.3965V9.87014C152.032 11.1452 153.066 12.1789 154.341 12.1789H208.359C209.634 12.1789 210.667 11.1452 210.667 9.87014V7.3965C210.667 6.12142 209.634 5.08777 208.359 5.08777Z" fill="black" stroke="#1A1A1A" strokeWidth="0.500001" strokeLinecap="round" strokeLinejoin="round"/>
<path d="M155.715 6.53918C154.555 6.53918 153.622 7.4728 153.622 8.63303C153.622 9.79326 154.555 10.7269 155.715 10.7269H206.984C208.144 10.7269 209.078 9.79326 209.078 8.63303C209.078 7.4728 208.144 6.53918 206.984 6.53918H155.715Z" stroke="#292929" strokeWidth="0.153809" strokeLinecap="round"/>
<g filter="url(#filter1_f_19_1301)">
<path d="M209.077 8.63306C209.077 9.00177 208.864 9.30067 208.601 9.30067C208.338 9.30067 208.125 9.00177 208.125 8.63306C208.125 8.26435 208.338 7.96545 208.601 7.96545C208.864 7.96545 209.077 8.26435 209.077 8.63306Z" fill="white"/>
<path d="M153.622 8.63306C153.622 9.00177 153.835 9.30067 154.098 9.30067C154.361 9.30067 154.575 9.00177 154.575 8.63306C154.575 8.26435 154.361 7.96545 154.098 7.96545C153.835 7.96545 153.622 8.26435 153.622 8.63306Z" fill="white"/>
</g>
<g clip-path="url(#clip0_19_1301)">
<path d="M58.0918 17C37.0548 16.9993 20.0004 34.0528 20 55.0898V674.977C19.9993 696.014 37.054 713.067 58.0918 713.066H303.35C324.387 713.067 341.442 696.014 341.441 674.977V55.0898C341.441 34.0528 324.387 16.9993 303.35 17H254.502C250.05 17 247.748 17.4603 247.748 24.5215C247.748 31.5827 243.372 43.4805 227.715 43.4805H133.727C118.069 43.4805 113.693 31.5827 113.693 24.5215C113.693 17.4603 111.391 17 106.939 17H58.0918Z" fill="#F2F2F2"/>
</g>
<path d="M107 17C111.452 17 113.754 17.4603 113.754 24.5215C113.754 31.5827 118.13 43.4805 133.787 43.4805H227.775C243.433 43.4805 247.809 31.5827 247.809 24.5215C247.809 17.4603 250.111 17 254.562 17H107Z" fill="black"/>
<path d="M134.431 31.9796C137.589 31.9796 140.15 29.4195 140.15 26.2615C140.15 23.1035 137.589 20.5435 134.431 20.5435C131.273 20.5435 128.713 23.1035 128.713 26.2615C128.713 29.4195 131.273 31.9796 134.431 31.9796Z" fill="#161616"/>
<path d="M134.431 29.7885C136.379 29.7885 137.958 28.2094 137.958 26.2615C137.958 24.3136 136.379 22.7345 134.431 22.7345C132.483 22.7345 130.904 24.3136 130.904 26.2615C130.904 28.2094 132.483 29.7885 134.431 29.7885Z" fill="#0A0D13"/>
<path d="M134.431 28.9488C135.916 28.9488 137.119 27.7457 137.119 26.2615C137.119 24.7774 135.916 23.5742 134.431 23.5742C132.947 23.5742 131.744 24.7774 131.744 26.2615C131.744 27.7457 132.947 28.9488 134.431 28.9488Z" fill="#091427"/>
<g filter="url(#filter2_f_19_1301)">
<path fill-rule="evenodd" clip-rule="evenodd" d="M132.581 24.4636C132.263 24.4972 131.81 24.9835 131.776 25.9395C131.743 26.8955 132.162 27.4155 132.397 27.4155C132.632 27.4155 133.604 26.0234 132.581 24.4636H132.581Z" fill="#235A91" fill-opacity="0.556075"/>
</g>
<g filter="url(#filter3_f_19_1301)">
<path fill-rule="evenodd" clip-rule="evenodd" d="M134.87 24.1289C134.367 24.2835 134.271 25.0955 134.29 25.5595C134.309 26.0235 134.967 27.2415 135.759 26.9708C136.552 26.7001 136.687 25.6948 136.359 25.0182C136.03 24.3415 135.431 23.8582 134.87 24.1289Z" fill="#235A91" fill-opacity="0.556075"/>
</g>
<defs>
<filter id="filter0_f_19_1301" x="2.5981" y="0.514119" width="355.593" height="728.296" filterUnits="userSpaceOnUse" color-interpolation-filters="sRGB">
<feFlood flood-opacity="0" result="BackgroundImageFix"/>
<feBlend mode="normal" in="SourceGraphic" in2="BackgroundImageFix" result="shape"/>
<feGaussianBlur stdDeviation="0.968526" result="effect1_foregroundBlur_19_1301"/>
</filter>
<filter id="filter1_f_19_1301" x="150.111" y="4.45485" width="62.4773" height="8.35641" filterUnits="userSpaceOnUse" color-interpolation-filters="sRGB">
<feFlood flood-opacity="0" result="BackgroundImageFix"/>
<feBlend mode="normal" in="SourceGraphic" in2="BackgroundImageFix" result="shape"/>
<feGaussianBlur stdDeviation="1.7553" result="effect1_foregroundBlur_19_1301"/>
</filter>
<filter id="filter2_f_19_1301" x="131.572" y="24.2608" width="1.67182" height="3.35748" filterUnits="userSpaceOnUse" color-interpolation-filters="sRGB">
<feFlood flood-opacity="0" result="BackgroundImageFix"/>
<feBlend mode="normal" in="SourceGraphic" in2="BackgroundImageFix" result="shape"/>
<feGaussianBlur stdDeviation="0.101426" result="effect1_foregroundBlur_19_1301"/>
</filter>
<filter id="filter3_f_19_1301" x="134.085" y="23.8495" width="2.6435" height="3.36298" filterUnits="userSpaceOnUse" color-interpolation-filters="sRGB">
<feFlood flood-opacity="0" result="BackgroundImageFix"/>
<feBlend mode="normal" in="SourceGraphic" in2="BackgroundImageFix" result="shape"/>
<feGaussianBlur stdDeviation="0.101426" result="effect1_foregroundBlur_19_1301"/>
</filter>
<linearGradient id="paint0_linear_19_1301" x1="360.699" y1="218.211" x2="360.699" y2="302.379" gradientUnits="userSpaceOnUse">
<stop stopColor="#81AACE"/>
<stop offset="0.1" stopColor="#B9D2E8"/>
<stop offset="0.9" stopColor="#B9D2E8"/>
<stop offset="1" stopColor="#81AACE"/>
</linearGradient>
<linearGradient id="paint1_linear_19_1301" x1="10.1844" y1="200.73" x2="10.1844" y2="252.624" gradientUnits="userSpaceOnUse">
<stop stopColor="#81AACE"/>
<stop offset="0.1" stopColor="#B9D2E8"/>
<stop offset="0.9" stopColor="#B9D2E8"/>
<stop offset="1" stopColor="#81AACE"/>
</linearGradient>
<linearGradient id="paint2_linear_19_1301" x1="10.0946" y1="270.767" x2="10.0946" y2="322.661" gradientUnits="userSpaceOnUse">
<stop stopColor="#81AACE"/>
<stop offset="0.1" stopColor="#B9D2E8"/>
<stop offset="0.9" stopColor="#B9D2E8"/>
<stop offset="1" stopColor="#81AACE"/>
</linearGradient>
<linearGradient id="paint3_linear_19_1301" x1="10.0946" y1="147.56" x2="10.0946" y2="173.665" gradientUnits="userSpaceOnUse">
<stop stopColor="#81AACE"/>
<stop offset="0.1" stopColor="#B9D2E8"/>
<stop offset="0.9" stopColor="#B9D2E8"/>
<stop offset="1" stopColor="#81AACE"/>
</linearGradient>
<clipPath id="clip0_19_1301">
<path d="M20 55C20 34.0132 37.0132 17 58 17H303.441C324.428 17 341.441 34.0132 341.441 55V675.066C341.441 696.053 324.428 713.066 303.441 713.066H58C37.0132 713.066 20 696.053 20 675.066V55Z" fill="white"/>
</clipPath>
</defs>
</svg>
