<svg width="20" height="20" viewBox="0 0 20 20" fill="none" xmlns="http://www.w3.org/2000/svg">
<path d="M15.033 11.2916C14.683 11.6333 14.483 12.125 14.533 12.65C14.608 13.55 15.433 14.2083 16.333 14.2083H17.9163V15.2C17.9163 16.925 16.508 18.3333 14.783 18.3333H6.35801C6.61635 18.1166 6.84134 17.85 7.01634 17.55C7.32467 17.05 7.49967 16.4583 7.49967 15.8333C7.49967 13.9916 6.00801 12.5 4.16634 12.5C3.38301 12.5 2.65801 12.775 2.08301 13.2333V9.59165C2.08301 7.86665 3.49134 6.45831 5.21634 6.45831H14.783C16.508 6.45831 17.9163 7.86665 17.9163 9.59165V10.7917H16.233C15.7663 10.7917 15.3413 10.975 15.033 11.2916Z" stroke="white" strokeWidth="1.5" strokeLinecap="round" strokeLinejoin="round"/>
<path d="M2.08301 10.3416V6.53336C2.08301 5.54169 2.69134 4.65832 3.61634 4.30832L10.233 1.80832C11.2663 1.41666 12.3747 2.18335 12.3747 3.29168V6.45834" stroke="white" strokeWidth="1.5" strokeLinecap="round" strokeLinejoin="round"/>
<path d="M18.7987 11.6418V13.3585C18.7987 13.8168 18.432 14.1918 17.9653 14.2085H16.332C15.432 14.2085 14.607 13.5501 14.532 12.6501C14.482 12.1251 14.682 11.6335 15.032 11.2918C15.3403 10.9751 15.7653 10.7918 16.232 10.7918H17.9653C18.432 10.8085 18.7987 11.1834 18.7987 11.6418Z" stroke="white" strokeWidth="1.5" strokeLinecap="round" strokeLinejoin="round"/>
<path d="M5.83301 10H11.6663" stroke="white" strokeWidth="1.5" strokeLinecap="round" strokeLinejoin="round"/>
<path d="M7.49967 15.8333C7.49967 16.4583 7.32467 17.05 7.01634 17.55C6.84134 17.85 6.61635 18.1167 6.35801 18.3333C5.77468 18.8583 5.00801 19.1667 4.16634 19.1667C2.94967 19.1667 1.89134 18.5167 1.31634 17.55C1.00801 17.05 0.833008 16.4583 0.833008 15.8333C0.833008 14.7833 1.31634 13.8417 2.08301 13.2333C2.65801 12.775 3.38301 12.5 4.16634 12.5C6.00801 12.5 7.49967 13.9917 7.49967 15.8333Z" stroke="white" strokeWidth="1.5" stroke-miterlimit="10" strokeLinecap="round" strokeLinejoin="round"/>
<path d="M2.86719 15.8329L3.69218 16.6579L5.46718 15.0163" stroke="white" strokeWidth="1.5" strokeLinecap="round" strokeLinejoin="round"/>
</svg>
